<svg width="361" height="148" viewBox="0 0 361 148" fill="none" xmlns="http://www.w3.org/2000/svg">
<path fill-rule="evenodd" clip-rule="evenodd" d="M180.902 0.782229C202.435 -5.91068 208.347 32.3631 229.972 38.8697C251.752 45.4231 279.14 27.0738 299.239 36.3882C317.665 44.927 325.331 65.6847 324.154 82.5158C322.883 100.689 286.045 113.173 292.648 130.613C301.476 153.931 365.593 155.11 360.738 179.142C356.253 201.339 298.24 180.614 279.171 197.317C262.364 212.039 289.03 240.824 272.947 256.041C259.329 268.925 231.454 261.475 210.231 262.542C190.582 263.531 168.622 270.038 151.668 262.141C133.142 253.511 126.269 234.939 117.618 219.401C111.157 207.798 117.136 192.646 107.371 182.581C97.5185 172.426 78.0819 172.081 64.7018 164.86C42.5077 152.882 11.5472 145.528 1.98105 125.703C-5.87263 109.428 11.4538 91.6683 22.0017 76.3695C32.4069 61.2777 41.5492 38.872 63.1884 36.9277C92.9945 34.2496 116.874 73.9175 144.829 65.3334C172.848 56.7298 152.928 9.4769 180.902 0.782229Z" fill="#006633" fill-opacity="0.1"/>
</svg>
