<svg width="31" height="31" viewBox="0 0 31 31" fill="none" xmlns="http://www.w3.org/2000/svg">
<path d="M31 24.4965C31 24.3339 31 24.1171 30.9457 24.0087C30.7828 23.4668 26.331 21.1906 25.5166 20.7028C24.9194 20.3776 24.2137 19.7273 23.5622 19.7273C22.2049 19.7273 20.2504 23.6836 19.056 23.6836C18.4588 23.6836 17.6988 23.1416 17.1559 22.8164C13.1384 20.5944 10.3695 17.8304 8.14361 13.8741C7.81786 13.3322 7.27496 12.5734 7.27496 11.9773C7.27496 10.785 11.2382 8.83391 11.2382 7.47902C11.2382 6.77447 10.5867 6.06993 10.2609 5.52797C9.77233 4.66084 7.54641 0.270978 7.0035 0.0541951C6.84063 -7.35248e-07 6.67776 0 6.51489 0C5.70053 0 4.18038 0.37937 3.47461 0.650349C1.46585 1.57168 0 5.36538 0 7.47902C0 9.48426 0.81436 11.3269 1.52014 13.2238C3.90893 19.8357 11.1296 27.0437 17.7531 29.4825C19.6532 30.1871 21.4991 31 23.5622 31C25.6252 31 29.4256 29.5367 30.3485 27.5315C30.6743 26.8269 31 25.2552 31 24.4965Z" fill="#E6F0EB"/>
</svg>
