<svg width="30" height="30" viewBox="0 0 30 30" fill="none" xmlns="http://www.w3.org/2000/svg">
<path d="M10.1826 13.8492C9.31297 12.9796 7.82565 13.4182 7.56695 14.6205C7.45897 15.1223 7.60602 15.6451 7.9598 16.017L13.3333 21.6667L28.8333 6.16667C29.4777 5.52233 29.4777 4.47767 28.8333 3.83333C28.189 3.18901 27.1443 3.18901 26.5 3.83334L13.3333 17L10.1826 13.8492ZM26.6667 26.6667H3.33333V3.33332H19.355C19.77 3.33332 20.1701 3.17852 20.4769 2.89918C21.6031 1.87407 20.8779 0 19.355 0H3.33333C1.5 0 0 1.5 0 3.33332V26.6667C0 28.5 1.5 30 3.33333 30H26.6667C28.5 30 30 28.5 30 26.6667V14.0135C30 12.5202 28.1874 11.7805 27.1426 12.8474C26.8375 13.1589 26.6667 13.5775 26.6667 14.0135V26.6667Z" fill="#006633"/>
</svg>
